<svg width="16" height="14" viewBox="0 0 16 14" fill="none" xmlns="http://www.w3.org/2000/svg">
<path fill-rule="evenodd" clip-rule="evenodd" d="M2.13667 3.98189C1.40144 4.84363 0.854718 5.82195 0.532989 6.79508C0.489004 6.92812 0.489004 7.07196 0.532989 7.205C1.45633 9.99782 4.23284 12.8334 8 12.8334C8.90659 12.8334 9.7558 12.6692 10.5356 12.3808L9.15836 11.0036C8.79061 11.1098 8.40195 11.1667 8 11.1667C5.69881 11.1667 3.83333 9.30123 3.83333 7.00004C3.83333 6.59809 3.89025 6.20943 3.99646 5.84168L2.13667 3.98189Z" fill="#6C7380"/>
<path fill-rule="evenodd" clip-rule="evenodd" d="M2.75598 0.577452C2.43054 0.252015 1.9029 0.252015 1.57747 0.577452C1.25203 0.902889 1.25203 1.43053 1.57747 1.75596L13.2441 13.4226C13.5696 13.7481 14.0972 13.7481 14.4226 13.4226C14.7481 13.0972 14.7481 12.5696 14.4226 12.2441L13.0394 10.8609C14.1959 9.82992 15.0346 8.51278 15.467 7.205C15.511 7.07196 15.511 6.92812 15.467 6.79508C14.5437 4.00226 11.7672 1.16671 8 1.16671C6.63199 1.16671 5.39462 1.54064 4.32919 2.15066L2.75598 0.577452ZM8 4.50004C9.38071 4.50004 10.5 5.61933 10.5 7.00004C10.5 7.38598 10.4125 7.75149 10.2564 8.07785L11.4764 9.29783C11.9126 8.63914 12.1667 7.84926 12.1667 7.00004C12.1667 4.69885 10.3012 2.83337 8 2.83337C7.15078 2.83337 6.3609 3.08743 5.70221 3.52368L6.92219 4.74366C7.24854 4.58749 7.61406 4.50004 8 4.50004Z" fill="#6C7380"/>
</svg>
