<svg width="14" height="14" viewBox="0 0 14 14" fill="none" xmlns="http://www.w3.org/2000/svg">
<path fill-rule="evenodd" clip-rule="evenodd" d="M6.16658 0.333328C9.38825 0.333328 11.9999 2.945 11.9999 6.16666C11.9999 7.47695 11.5679 8.68633 10.8386 9.66015L13.4225 12.2441C13.7479 12.5695 13.7479 13.0972 13.4225 13.4226C13.0971 13.748 12.5694 13.748 12.244 13.4226L9.66005 10.8387C8.68623 11.568 7.47686 12 6.16658 12C2.94492 12 0.333252 9.38832 0.333252 6.16666C0.333252 2.945 2.94492 0.333328 6.16658 0.333328ZM6.16658 10.3333C8.46777 10.3333 10.3333 8.46785 10.3333 6.16666C10.3333 3.86548 8.46777 1.99999 6.16658 1.99999C3.8654 1.99999 1.99992 3.86548 1.99992 6.16666C1.99992 8.46785 3.8654 10.3333 6.16658 10.3333Z" fill="#6C7380"/>
</svg>
