<svg width="16" height="12" viewBox="0 0 16 12" fill="none" xmlns="http://www.w3.org/2000/svg">
<path fill-rule="evenodd" clip-rule="evenodd" d="M8 0.166626C4.23284 0.166626 1.45633 3.00218 0.532989 5.795C0.489004 5.92804 0.489004 6.07188 0.532989 6.20492C1.45633 8.99774 4.23284 11.8333 8 11.8333C11.7672 11.8333 14.5437 8.99774 15.467 6.20492C15.511 6.07188 15.511 5.92804 15.467 5.795C14.5437 3.00218 11.7672 0.166626 8 0.166626ZM12.1667 5.99996C12.1667 8.30115 10.3012 10.1666 8 10.1666C5.69881 10.1666 3.83333 8.30115 3.83333 5.99996C3.83333 3.69877 5.69881 1.83329 8 1.83329C10.3012 1.83329 12.1667 3.69877 12.1667 5.99996ZM8 8.49996C9.38071 8.49996 10.5 7.38067 10.5 5.99996C10.5 4.61925 9.38071 3.49996 8 3.49996C6.61929 3.49996 5.5 4.61925 5.5 5.99996C5.5 7.38067 6.61929 8.49996 8 8.49996Z" fill="#6C7380"/>
</svg>
